# xmcd CD database file
#
# Track frame offsets:
#	150
#	16126
#	39988
#	60490
#	84485
#	106791
#	128981
#	149422
#	163026
#	193233
#	208028
#	229604
#	244189
#	262306
#	284740
#	307271
#	325621
#
# Disc length: 4629 seconds
#
# Revision: 1
# Processed by: cddbd v1.5.2PL0 Copyright (c) Steve Scherf et al.
# Submitted via: CDex 1.70beta2
#
DISCID=fa121311
DTITLE=Various Artist - Best Jazz Ballads 100 Vol.6
DYEAR=2007
DGENRE=Jazz
TTITLE0=Sarah Vaughan - 'Round Midnight
TTITLE1=Louis Smith - Stardust
TTITLE2=Bill Evans - Dream Gypsy
TTITLE3=Cassandra Wilson - Moon River
TTITLE4=Lou Donaldson - Polka Dots and Moonbeams
TTITLE5=寺井尚子 - When You Wish Upon A Star
TTITLE6=Julie London - All Through The Night
TTITLE7=Laurindo Almeida - Stairway To The Stars
TTITLE8=Sonny Clark - Deep In A Dream
TTITLE9=Chet Baker - Moon Love
TTITLE10=Dianne Reeves - Darn That Dream
TTITLE11=Johnny Smith - Moonlight In Vermont
TTITLE12=小林桂 - Fly Me to The Moon
TTITLE13=Booker Ervin - Deep Night
TTITLE14=Kenny Burrell and Grover Washigton Jr - Day Dream
TTITLE15=松永貴志 - Night River
TTITLE16=June Christy - The Night We Called It A Day
EXTD=YEAR: 2007
EXTT0=
EXTT1=
EXTT2=
EXTT3=
EXTT4=
EXTT5=
EXTT6=
EXTT7=
EXTT8=
EXTT9=
EXTT10=
EXTT11=
EXTT12=
EXTT13=
EXTT14=
EXTT15=
EXTT16=
PLAYORDER=
